classDiagram
%% This whole line is a comment classDiagram class Shape <<interface>>
class Shape{
    <<interface>>
    noOfVertices
    draw()
}

class Square~Shape~{
    int id
    List~int~ position
    setPoints(List~int~ points)
    getPoints() List~int~
}

Square : -List~string~ messages
Square : +setMessages(List~string~ messages)
Square : +getMessages() List~string~
Square : +getDistanceMatrix() List~List~int~~

classA --|> classB : Inheritance
classC --* classD : Composition
classE --o classF : Aggregation
classG --> classH : Association
classI -- classJ : Link(Solid)
classK ..> classL : Dependency
classM ..|> classN : Realization
classO .. classP : Link(Dashed)
namespace BaseShapes {
  class Class01 {
    int amount
    draw()
  }
}
  Class01 --() bar
  foo ()-- Class01

class Color{
    <<enumeration>>
    RED
    BLUE
    GREEN
    WHITE
    BLACK
}