stateDiagram-v2
    state if_state <<choice>>
    [*] --> IsPositive
    IsPositive --> if_state
    if_state --> False: if n < 0
    if_state --> True : if n >= 0

    state fork_state <<fork>>
      [*] --> fork_state
      fork_state --> State2
      fork_state --> State3

      state join_state <<join>>
      State2 --> join_state
      State3 --> join_state
      join_state --> State4
      State4 --> [*]

          [*] --> Active

    state Active {
        [*] --> NumLockOff
        NumLockOff --> NumLockOn : EvNumLockPressed
        NumLockOn --> NumLockOff : EvNumLockPressed
        --
        [*] --> CapsLockOff
        CapsLockOff --> CapsLockOn : EvCapsLockPressed
        CapsLockOn --> CapsLockOff : EvCapsLockPressed
        --
        [*] --> ScrollLockOff
        ScrollLockOff --> ScrollLockOn : EvScrollLockPressed
        ScrollLockOn --> ScrollLockOff : EvScrollLockPressed
    }